<svg id="visual" viewBox="0 0 900 600" width="900" height="600" xmlns="http://www.w3.org/2000/svg" xmlns:xlink="http://www.w3.org/1999/xlink" version="1.1"><g stroke-width="1" stroke-linejoin="bevel"><path d="M474 315L421 278L458 335Z" fill="#53bce5" stroke="#53bce5"></path><path d="M421 278L424 355L458 335Z" fill="#50cff9" stroke="#50cff9"></path><path d="M391 291L424 355L421 278Z" fill="#41556a" stroke="#41556a"></path><path d="M480 239L431 233L421 278Z" fill="#272a31" stroke="#272a31"></path><path d="M421 278L431 233L391 291Z" fill="#53bce5" stroke="#53bce5"></path><path d="M474 315L480 239L421 278Z" fill="#53bce5" stroke="#53bce5"></path><path d="M424 355L471 378L458 335Z" fill="#48657e" stroke="#48657e"></path><path d="M458 335L471 378L474 315Z" fill="#5398bc" stroke="#5398bc"></path><path d="M474 315L554 302L480 239Z" fill="#394657" stroke="#394657"></path><path d="M331 259L351 317L391 291Z" fill="#50cff9" stroke="#50cff9"></path><path d="M391 291L351 317L424 355Z" fill="#272a31" stroke="#272a31"></path><path d="M537 380L554 302L474 315Z" fill="#50cff9" stroke="#50cff9"></path><path d="M331 259L329 325L351 317Z" fill="#5398bc" stroke="#5398bc"></path><path d="M351 317L332 382L424 355Z" fill="#48657e" stroke="#48657e"></path><path d="M424 355L407 458L471 378Z" fill="#272a31" stroke="#272a31"></path><path d="M431 233L331 259L391 291Z" fill="#5186a8" stroke="#5186a8"></path><path d="M471 378L537 380L474 315Z" fill="#54aad1" stroke="#54aad1"></path><path d="M648 283L562 279L554 302Z" fill="#5186a8" stroke="#5186a8"></path><path d="M554 302L561 274L480 239Z" fill="#48657e" stroke="#48657e"></path><path d="M562 279L561 274L554 302Z" fill="#313843" stroke="#313843"></path><path d="M589 200L467 175L480 239Z" fill="#4d7593" stroke="#4d7593"></path><path d="M480 239L467 175L431 233Z" fill="#313843" stroke="#313843"></path><path d="M431 233L334 214L331 259Z" fill="#394657" stroke="#394657"></path><path d="M329 325L332 382L351 317Z" fill="#5186a8" stroke="#5186a8"></path><path d="M471 378L564 421L537 380Z" fill="#272a31" stroke="#272a31"></path><path d="M430 143L334 214L431 233Z" fill="#313843" stroke="#313843"></path><path d="M271 238L296 282L331 259Z" fill="#54aad1" stroke="#54aad1"></path><path d="M331 259L296 282L329 325Z" fill="#394657" stroke="#394657"></path><path d="M329 325L259 314L332 382Z" fill="#4d7593" stroke="#4d7593"></path><path d="M332 382L407 458L424 355Z" fill="#53bce5" stroke="#53bce5"></path><path d="M564 421L574 397L537 380Z" fill="#41556a" stroke="#41556a"></path><path d="M537 380L597 366L554 302Z" fill="#54aad1" stroke="#54aad1"></path><path d="M467 175L430 143L431 233Z" fill="#5398bc" stroke="#5398bc"></path><path d="M574 397L597 366L537 380Z" fill="#41556a" stroke="#41556a"></path><path d="M648 283L589 200L561 274Z" fill="#54aad1" stroke="#54aad1"></path><path d="M474 491L564 421L471 378Z" fill="#41556a" stroke="#41556a"></path><path d="M574 397L643 411L597 366Z" fill="#50cff9" stroke="#50cff9"></path><path d="M332 382L363 462L407 458Z" fill="#53bce5" stroke="#53bce5"></path><path d="M221 378L329 444L332 382Z" fill="#50cff9" stroke="#50cff9"></path><path d="M332 382L329 444L363 462Z" fill="#5398bc" stroke="#5398bc"></path><path d="M607 183L589 200L648 283Z" fill="#5186a8" stroke="#5186a8"></path><path d="M561 274L589 200L480 239Z" fill="#5398bc" stroke="#5398bc"></path><path d="M467 175L437 113L430 143Z" fill="#272a31" stroke="#272a31"></path><path d="M271 238L259 314L296 282Z" fill="#48657e" stroke="#48657e"></path><path d="M296 282L259 314L329 325Z" fill="#272a31" stroke="#272a31"></path><path d="M258 221L271 238L334 214Z" fill="#394657" stroke="#394657"></path><path d="M334 214L271 238L331 259Z" fill="#54aad1" stroke="#54aad1"></path><path d="M377 524L474 491L407 458Z" fill="#53bce5" stroke="#53bce5"></path><path d="M407 458L474 491L471 378Z" fill="#53bce5" stroke="#53bce5"></path><path d="M496 105L437 113L467 175Z" fill="#53bce5" stroke="#53bce5"></path><path d="M430 143L301 157L334 214Z" fill="#394657" stroke="#394657"></path><path d="M301 157L258 221L334 214Z" fill="#5398bc" stroke="#5398bc"></path><path d="M271 238L239 320L259 314Z" fill="#313843" stroke="#313843"></path><path d="M197 310L239 320L271 238Z" fill="#394657" stroke="#394657"></path><path d="M259 314L221 378L332 382Z" fill="#5186a8" stroke="#5186a8"></path><path d="M380 78L301 157L430 143Z" fill="#50cff9" stroke="#50cff9"></path><path d="M648 283L561 274L562 279Z" fill="#48657e" stroke="#48657e"></path><path d="M582 143L496 105L467 175Z" fill="#313843" stroke="#313843"></path><path d="M582 143L467 175L589 200Z" fill="#394657" stroke="#394657"></path><path d="M678 315L648 283L597 366Z" fill="#54aad1" stroke="#54aad1"></path><path d="M597 366L648 283L554 302Z" fill="#394657" stroke="#394657"></path><path d="M320 87L292 152L301 157Z" fill="#53bce5" stroke="#53bce5"></path><path d="M301 157L257 156L258 221Z" fill="#53bce5" stroke="#53bce5"></path><path d="M607 183L582 143L589 200Z" fill="#48657e" stroke="#48657e"></path><path d="M496 105L448 89L437 113Z" fill="#53bce5" stroke="#53bce5"></path><path d="M437 113L380 78L430 143Z" fill="#41556a" stroke="#41556a"></path><path d="M197 310L225 336L239 320Z" fill="#41556a" stroke="#41556a"></path><path d="M239 320L225 336L259 314Z" fill="#4d7593" stroke="#4d7593"></path><path d="M622 478L643 411L564 421Z" fill="#394657" stroke="#394657"></path><path d="M564 421L643 411L574 397Z" fill="#394657" stroke="#394657"></path><path d="M305 512L377 524L363 462Z" fill="#48657e" stroke="#48657e"></path><path d="M363 462L377 524L407 458Z" fill="#313843" stroke="#313843"></path><path d="M295 484L363 462L329 444Z" fill="#54aad1" stroke="#54aad1"></path><path d="M261 477L295 484L329 444Z" fill="#54aad1" stroke="#54aad1"></path><path d="M639 127L581 120L582 143Z" fill="#313843" stroke="#313843"></path><path d="M582 143L581 120L496 105Z" fill="#53bce5" stroke="#53bce5"></path><path d="M496 105L486 0L448 89Z" fill="#394657" stroke="#394657"></path><path d="M225 336L221 378L259 314Z" fill="#53bce5" stroke="#53bce5"></path><path d="M542 521L571 500L474 491Z" fill="#41556a" stroke="#41556a"></path><path d="M474 491L571 500L564 421Z" fill="#54aad1" stroke="#54aad1"></path><path d="M448 89L380 78L437 113Z" fill="#48657e" stroke="#48657e"></path><path d="M643 411L678 315L597 366Z" fill="#54aad1" stroke="#54aad1"></path><path d="M648 283L680 184L607 183Z" fill="#53bce5" stroke="#53bce5"></path><path d="M607 183L639 127L582 143Z" fill="#53bce5" stroke="#53bce5"></path><path d="M292 152L257 156L301 157Z" fill="#53bce5" stroke="#53bce5"></path><path d="M258 221L197 310L271 238Z" fill="#394657" stroke="#394657"></path><path d="M287 57L257 156L292 152Z" fill="#48657e" stroke="#48657e"></path><path d="M524 529L542 521L474 491Z" fill="#54aad1" stroke="#54aad1"></path><path d="M453 582L524 529L474 491Z" fill="#54aad1" stroke="#54aad1"></path><path d="M571 500L605 482L564 421Z" fill="#5398bc" stroke="#5398bc"></path><path d="M622 478L605 482L627 532Z" fill="#272a31" stroke="#272a31"></path><path d="M740 353L684 313L678 315Z" fill="#54aad1" stroke="#54aad1"></path><path d="M678 315L684 313L648 283Z" fill="#50cff9" stroke="#50cff9"></path><path d="M159 242L197 310L258 221Z" fill="#394657" stroke="#394657"></path><path d="M225 336L197 310L221 378Z" fill="#5186a8" stroke="#5186a8"></path><path d="M295 484L305 512L363 462Z" fill="#41556a" stroke="#41556a"></path><path d="M261 477L305 512L295 484Z" fill="#394657" stroke="#394657"></path><path d="M221 378L261 477L329 444Z" fill="#54aad1" stroke="#54aad1"></path><path d="M380 78L320 87L301 157Z" fill="#272a31" stroke="#272a31"></path><path d="M605 482L622 478L564 421Z" fill="#313843" stroke="#313843"></path><path d="M643 411L740 353L678 315Z" fill="#313843" stroke="#313843"></path><path d="M627 532L605 482L571 500Z" fill="#41556a" stroke="#41556a"></path><path d="M684 313L691 263L648 283Z" fill="#53bce5" stroke="#53bce5"></path><path d="M212 106L215 181L257 156Z" fill="#48657e" stroke="#48657e"></path><path d="M257 156L215 181L258 221Z" fill="#5398bc" stroke="#5398bc"></path><path d="M597 58L553 70L581 120Z" fill="#4d7593" stroke="#4d7593"></path><path d="M581 120L553 70L496 105Z" fill="#5186a8" stroke="#5186a8"></path><path d="M448 89L378 28L380 78Z" fill="#4d7593" stroke="#4d7593"></path><path d="M680 184L639 127L607 183Z" fill="#48657e" stroke="#48657e"></path><path d="M691 263L680 184L648 283Z" fill="#394657" stroke="#394657"></path><path d="M305 512L380 570L377 524Z" fill="#50cff9" stroke="#50cff9"></path><path d="M377 524L453 582L474 491Z" fill="#48657e" stroke="#48657e"></path><path d="M380 570L453 582L377 524Z" fill="#394657" stroke="#394657"></path><path d="M579 600L627 532L542 521Z" fill="#272a31" stroke="#272a31"></path><path d="M542 521L627 532L571 500Z" fill="#272a31" stroke="#272a31"></path><path d="M679 500L686 442L622 478Z" fill="#4d7593" stroke="#4d7593"></path><path d="M622 478L686 442L643 411Z" fill="#394657" stroke="#394657"></path><path d="M684 313L739 277L691 263Z" fill="#50cff9" stroke="#50cff9"></path><path d="M691 263L700 187L680 184Z" fill="#272a31" stroke="#272a31"></path><path d="M680 184L656 98L639 127Z" fill="#48657e" stroke="#48657e"></path><path d="M739 277L700 187L691 263Z" fill="#48657e" stroke="#48657e"></path><path d="M380 78L378 28L320 87Z" fill="#5398bc" stroke="#5398bc"></path><path d="M320 87L287 57L292 152Z" fill="#48657e" stroke="#48657e"></path><path d="M401 0L378 28L448 89Z" fill="#48657e" stroke="#48657e"></path><path d="M215 181L159 242L258 221Z" fill="#54aad1" stroke="#54aad1"></path><path d="M197 310L140 336L221 378Z" fill="#394657" stroke="#394657"></path><path d="M221 378L149 468L261 477Z" fill="#5186a8" stroke="#5186a8"></path><path d="M644 80L597 58L581 120Z" fill="#53bce5" stroke="#53bce5"></path><path d="M486 0L401 0L448 89Z" fill="#313843" stroke="#313843"></path><path d="M644 80L581 120L639 127Z" fill="#5398bc" stroke="#5398bc"></path><path d="M354 0L287 57L320 87Z" fill="#5398bc" stroke="#5398bc"></path><path d="M138 212L144 237L159 242Z" fill="#313843" stroke="#313843"></path><path d="M530 600L542 521L524 529Z" fill="#50cff9" stroke="#50cff9"></path><path d="M380 570L421 600L453 582Z" fill="#54aad1" stroke="#54aad1"></path><path d="M453 582L502 600L524 529Z" fill="#53bce5" stroke="#53bce5"></path><path d="M735 153L656 98L680 184Z" fill="#41556a" stroke="#41556a"></path><path d="M740 353L739 277L684 313Z" fill="#313843" stroke="#313843"></path><path d="M421 600L502 600L453 582Z" fill="#313843" stroke="#313843"></path><path d="M686 442L740 353L643 411Z" fill="#394657" stroke="#394657"></path><path d="M269 600L373 600L380 570Z" fill="#50cff9" stroke="#50cff9"></path><path d="M380 570L373 600L421 600Z" fill="#5186a8" stroke="#5186a8"></path><path d="M269 600L380 570L305 512Z" fill="#272a31" stroke="#272a31"></path><path d="M159 242L140 336L197 310Z" fill="#53bce5" stroke="#53bce5"></path><path d="M656 98L644 80L639 127Z" fill="#4d7593" stroke="#4d7593"></path><path d="M216 98L212 106L257 156Z" fill="#4d7593" stroke="#4d7593"></path><path d="M138 212L159 242L215 181Z" fill="#313843" stroke="#313843"></path><path d="M159 242L144 237L140 336Z" fill="#54aad1" stroke="#54aad1"></path><path d="M287 57L216 98L257 156Z" fill="#272a31" stroke="#272a31"></path><path d="M135 112L138 212L215 181Z" fill="#5398bc" stroke="#5398bc"></path><path d="M627 532L679 500L622 478Z" fill="#394657" stroke="#394657"></path><path d="M686 442L802 437L740 353Z" fill="#4d7593" stroke="#4d7593"></path><path d="M502 600L530 600L524 529Z" fill="#5186a8" stroke="#5186a8"></path><path d="M627 532L703 538L679 500Z" fill="#272a31" stroke="#272a31"></path><path d="M486 0L496 105L553 70Z" fill="#54aad1" stroke="#54aad1"></path><path d="M378 28L354 0L320 87Z" fill="#41556a" stroke="#41556a"></path><path d="M528 0L486 0L553 70Z" fill="#54aad1" stroke="#54aad1"></path><path d="M528 0L553 70L595 0Z" fill="#394657" stroke="#394657"></path><path d="M140 336L143 387L221 378Z" fill="#53bce5" stroke="#53bce5"></path><path d="M261 477L254 568L305 512Z" fill="#4d7593" stroke="#4d7593"></path><path d="M595 0L553 70L597 58Z" fill="#4d7593" stroke="#4d7593"></path><path d="M135 112L215 181L212 106Z" fill="#53bce5" stroke="#53bce5"></path><path d="M144 237L117 336L140 336Z" fill="#53bce5" stroke="#53bce5"></path><path d="M401 0L354 0L378 28Z" fill="#313843" stroke="#313843"></path><path d="M287 57L223 0L216 98Z" fill="#54aad1" stroke="#54aad1"></path><path d="M149 468L210 525L261 477Z" fill="#41556a" stroke="#41556a"></path><path d="M210 525L254 568L261 477Z" fill="#5398bc" stroke="#5398bc"></path><path d="M530 600L579 600L542 521Z" fill="#4d7593" stroke="#4d7593"></path><path d="M140 336L117 336L143 387Z" fill="#394657" stroke="#394657"></path><path d="M143 387L149 468L221 378Z" fill="#53bce5" stroke="#53bce5"></path><path d="M102 342L117 336L49 233Z" fill="#5398bc" stroke="#5398bc"></path><path d="M656 98L706 78L644 80Z" fill="#53bce5" stroke="#53bce5"></path><path d="M700 187L735 153L680 184Z" fill="#272a31" stroke="#272a31"></path><path d="M757 149L735 153L784 180Z" fill="#54aad1" stroke="#54aad1"></path><path d="M102 342L127 410L143 387Z" fill="#54aad1" stroke="#54aad1"></path><path d="M127 410L149 468L143 387Z" fill="#53bce5" stroke="#53bce5"></path><path d="M257 600L269 600L254 568Z" fill="#41556a" stroke="#41556a"></path><path d="M354 0L302 0L287 57Z" fill="#53bce5" stroke="#53bce5"></path><path d="M117 336L102 342L143 387Z" fill="#5186a8" stroke="#5186a8"></path><path d="M81 346L102 342L49 233Z" fill="#50cff9" stroke="#50cff9"></path><path d="M257 600L254 568L205 600Z" fill="#50cff9" stroke="#50cff9"></path><path d="M254 568L269 600L305 512Z" fill="#41556a" stroke="#41556a"></path><path d="M657 0L595 0L597 58Z" fill="#272a31" stroke="#272a31"></path><path d="M657 0L597 58L644 80Z" fill="#394657" stroke="#394657"></path><path d="M205 600L254 568L210 525Z" fill="#394657" stroke="#394657"></path><path d="M735 153L706 78L656 98Z" fill="#41556a" stroke="#41556a"></path><path d="M668 600L703 538L627 532Z" fill="#5398bc" stroke="#5398bc"></path><path d="M679 500L746 504L686 442Z" fill="#50cff9" stroke="#50cff9"></path><path d="M784 180L735 153L700 187Z" fill="#4d7593" stroke="#4d7593"></path><path d="M735 153L757 149L706 78Z" fill="#48657e" stroke="#48657e"></path><path d="M784 180L700 187L739 277Z" fill="#5186a8" stroke="#5186a8"></path><path d="M134 23L135 112L216 98Z" fill="#5398bc" stroke="#5398bc"></path><path d="M216 98L135 112L212 106Z" fill="#41556a" stroke="#41556a"></path><path d="M49 233L117 336L144 237Z" fill="#54aad1" stroke="#54aad1"></path><path d="M49 233L144 237L138 212Z" fill="#4d7593" stroke="#4d7593"></path><path d="M102 342L64 385L127 410Z" fill="#272a31" stroke="#272a31"></path><path d="M85 556L145 543L149 468Z" fill="#48657e" stroke="#48657e"></path><path d="M703 538L746 504L679 500Z" fill="#53bce5" stroke="#53bce5"></path><path d="M806 276L784 180L739 277Z" fill="#4d7593" stroke="#4d7593"></path><path d="M806 276L739 277L813 295Z" fill="#48657e" stroke="#48657e"></path><path d="M734 0L697 0L706 78Z" fill="#48657e" stroke="#48657e"></path><path d="M813 295L739 277L740 353Z" fill="#5398bc" stroke="#5398bc"></path><path d="M812 555L762 497L746 504Z" fill="#313843" stroke="#313843"></path><path d="M579 600L668 600L627 532Z" fill="#394657" stroke="#394657"></path><path d="M825 362L813 295L740 353Z" fill="#48657e" stroke="#48657e"></path><path d="M806 276L827 216L784 180Z" fill="#5398bc" stroke="#5398bc"></path><path d="M812 555L746 504L784 600Z" fill="#313843" stroke="#313843"></path><path d="M746 504L762 497L686 442Z" fill="#272a31" stroke="#272a31"></path><path d="M706 78L657 0L644 80Z" fill="#50cff9" stroke="#50cff9"></path><path d="M697 0L657 0L706 78Z" fill="#394657" stroke="#394657"></path><path d="M302 0L223 0L287 57Z" fill="#54aad1" stroke="#54aad1"></path><path d="M145 543L210 525L149 468Z" fill="#53bce5" stroke="#53bce5"></path><path d="M145 543L205 600L210 525Z" fill="#54aad1" stroke="#54aad1"></path><path d="M223 0L195 17L216 98Z" fill="#272a31" stroke="#272a31"></path><path d="M53 400L149 468L127 410Z" fill="#5398bc" stroke="#5398bc"></path><path d="M762 497L802 437L686 442Z" fill="#394657" stroke="#394657"></path><path d="M0 391L64 385L81 346Z" fill="#48657e" stroke="#48657e"></path><path d="M81 346L64 385L102 342Z" fill="#54aad1" stroke="#54aad1"></path><path d="M821 391L825 362L740 353Z" fill="#394657" stroke="#394657"></path><path d="M195 17L134 23L216 98Z" fill="#394657" stroke="#394657"></path><path d="M223 0L202 0L195 17Z" fill="#272a31" stroke="#272a31"></path><path d="M802 437L821 391L740 353Z" fill="#313843" stroke="#313843"></path><path d="M762 497L813 436L802 437Z" fill="#394657" stroke="#394657"></path><path d="M802 437L813 436L821 391Z" fill="#48657e" stroke="#48657e"></path><path d="M668 600L705 600L703 538Z" fill="#53bce5" stroke="#53bce5"></path><path d="M900 495L862 427L813 436Z" fill="#313843" stroke="#313843"></path><path d="M877 274L827 216L806 276Z" fill="#54aad1" stroke="#54aad1"></path><path d="M797 124L706 78L757 149Z" fill="#53bce5" stroke="#53bce5"></path><path d="M877 274L806 276L813 295Z" fill="#50cff9" stroke="#50cff9"></path><path d="M26 106L56 207L135 112Z" fill="#41556a" stroke="#41556a"></path><path d="M135 112L56 207L138 212Z" fill="#394657" stroke="#394657"></path><path d="M797 124L757 149L784 180Z" fill="#48657e" stroke="#48657e"></path><path d="M56 207L49 233L138 212Z" fill="#5398bc" stroke="#5398bc"></path><path d="M877 170L797 124L784 180Z" fill="#4d7593" stroke="#4d7593"></path><path d="M0 391L53 400L64 385Z" fill="#54aad1" stroke="#54aad1"></path><path d="M64 385L53 400L127 410Z" fill="#53bce5" stroke="#53bce5"></path><path d="M202 0L134 23L195 17Z" fill="#53bce5" stroke="#53bce5"></path><path d="M813 60L734 0L706 78Z" fill="#394657" stroke="#394657"></path><path d="M19 486L85 556L149 468Z" fill="#4d7593" stroke="#4d7593"></path><path d="M145 543L111 600L205 600Z" fill="#48657e" stroke="#48657e"></path><path d="M900 341L877 274L813 295Z" fill="#394657" stroke="#394657"></path><path d="M900 101L813 60L797 124Z" fill="#54aad1" stroke="#54aad1"></path><path d="M797 124L813 60L706 78Z" fill="#313843" stroke="#313843"></path><path d="M900 341L813 295L825 362Z" fill="#41556a" stroke="#41556a"></path><path d="M872 392L825 362L821 391Z" fill="#394657" stroke="#394657"></path><path d="M812 555L813 436L762 497Z" fill="#313843" stroke="#313843"></path><path d="M813 436L862 427L821 391Z" fill="#394657" stroke="#394657"></path><path d="M85 556L94 572L145 543Z" fill="#41556a" stroke="#41556a"></path><path d="M862 427L872 392L821 391Z" fill="#54aad1" stroke="#54aad1"></path><path d="M0 280L0 297L49 233Z" fill="#4d7593" stroke="#4d7593"></path><path d="M49 233L0 297L81 346Z" fill="#313843" stroke="#313843"></path><path d="M53 400L19 486L149 468Z" fill="#394657" stroke="#394657"></path><path d="M0 280L49 233L0 167Z" fill="#48657e" stroke="#48657e"></path><path d="M0 167L49 233L56 207Z" fill="#5186a8" stroke="#5186a8"></path><path d="M94 572L111 600L145 543Z" fill="#394657" stroke="#394657"></path><path d="M877 170L784 180L827 216Z" fill="#313843" stroke="#313843"></path><path d="M784 600L746 504L703 538Z" fill="#50cff9" stroke="#50cff9"></path><path d="M0 297L0 391L81 346Z" fill="#313843" stroke="#313843"></path><path d="M705 600L784 600L703 538Z" fill="#50cff9" stroke="#50cff9"></path><path d="M78 0L71 40L134 23Z" fill="#50cff9" stroke="#50cff9"></path><path d="M134 23L71 40L135 112Z" fill="#5398bc" stroke="#5398bc"></path><path d="M900 197L877 170L827 216Z" fill="#5186a8" stroke="#5186a8"></path><path d="M85 556L75 600L94 572Z" fill="#394657" stroke="#394657"></path><path d="M94 572L75 600L111 600Z" fill="#50cff9" stroke="#50cff9"></path><path d="M0 435L19 486L53 400Z" fill="#313843" stroke="#313843"></path><path d="M900 392L872 392L900 418Z" fill="#54aad1" stroke="#54aad1"></path><path d="M900 392L900 341L872 392Z" fill="#41556a" stroke="#41556a"></path><path d="M872 392L900 341L825 362Z" fill="#53bce5" stroke="#53bce5"></path><path d="M877 274L900 227L827 216Z" fill="#394657" stroke="#394657"></path><path d="M0 391L0 435L53 400Z" fill="#313843" stroke="#313843"></path><path d="M71 40L26 106L135 112Z" fill="#50cff9" stroke="#50cff9"></path><path d="M26 106L0 167L56 207Z" fill="#5186a8" stroke="#5186a8"></path><path d="M900 341L900 227L877 274Z" fill="#53bce5" stroke="#53bce5"></path><path d="M900 418L872 392L862 427Z" fill="#5398bc" stroke="#5398bc"></path><path d="M0 600L75 600L85 556Z" fill="#50cff9" stroke="#50cff9"></path><path d="M900 227L900 197L827 216Z" fill="#53bce5" stroke="#53bce5"></path><path d="M900 101L833 37L813 60Z" fill="#48657e" stroke="#48657e"></path><path d="M900 495L900 418L862 427Z" fill="#4d7593" stroke="#4d7593"></path><path d="M900 495L813 436L812 555Z" fill="#313843" stroke="#313843"></path><path d="M0 87L0 107L26 106Z" fill="#272a31" stroke="#272a31"></path><path d="M202 0L78 0L134 23Z" fill="#53bce5" stroke="#53bce5"></path><path d="M900 101L797 124L877 170Z" fill="#50cff9" stroke="#50cff9"></path><path d="M813 60L833 0L734 0Z" fill="#54aad1" stroke="#54aad1"></path><path d="M0 87L26 106L71 40Z" fill="#5398bc" stroke="#5398bc"></path><path d="M26 106L0 107L0 167Z" fill="#53bce5" stroke="#53bce5"></path><path d="M0 435L0 516L19 486Z" fill="#50cff9" stroke="#50cff9"></path><path d="M19 486L0 532L85 556Z" fill="#5398bc" stroke="#5398bc"></path><path d="M36 0L0 87L71 40Z" fill="#272a31" stroke="#272a31"></path><path d="M0 516L0 532L19 486Z" fill="#394657" stroke="#394657"></path><path d="M900 564L900 495L812 555Z" fill="#50cff9" stroke="#50cff9"></path><path d="M900 24L833 0L833 37Z" fill="#313843" stroke="#313843"></path><path d="M833 37L833 0L813 60Z" fill="#394657" stroke="#394657"></path><path d="M784 600L844 600L812 555Z" fill="#394657" stroke="#394657"></path><path d="M900 197L900 101L877 170Z" fill="#53bce5" stroke="#53bce5"></path><path d="M78 0L36 0L71 40Z" fill="#4d7593" stroke="#4d7593"></path><path d="M844 600L900 564L812 555Z" fill="#313843" stroke="#313843"></path><path d="M0 532L0 600L85 556Z" fill="#5398bc" stroke="#5398bc"></path><path d="M36 0L0 0L0 87Z" fill="#54aad1" stroke="#54aad1"></path><path d="M900 101L900 24L833 37Z" fill="#5186a8" stroke="#5186a8"></path><path d="M844 600L900 600L900 564Z" fill="#5398bc" stroke="#5398bc"></path><path d="M900 24L900 0L833 0Z" fill="#5398bc" stroke="#5398bc"></path></g></svg>